<svg width="132" height="22" viewBox="0 0 132 22" fill="none" xmlns="http://www.w3.org/2000/svg">
<g clip-path="url(#clip0_405_319)">
<mask id="mask0_405_319" style="mask-type:luminance" maskUnits="userSpaceOnUse" x="0" y="0" width="133" height="22">
<path d="M132 0.549805H0V21.3084H132V0.549805Z" fill="white"/>
</mask>
<g mask="url(#mask0_405_319)">
<path fill-rule="evenodd" clip-rule="evenodd" d="M12.7606 2.14346L9.66862 0.549805L0.00109679 6.2166L0 6.21604V6.21723V9.56439L3.77438 11.4833V19.9691L6.42157 21.3084L6.38129 12.7826L10.3572 14.7916L10.3874 11.4833L10.3867 11.4829L20.1027 5.89851L17.0712 4.33473L9.99092 8.40852L5.60983 6.21725L12.7606 2.14346ZM13.9504 12.7922L11.3736 14.2015V19.8887L13.9504 21.2181V12.7922Z" fill="#7D8D9C"/>
<path fill-rule="evenodd" clip-rule="evenodd" d="M118.186 6.44629H119.812V7.20415C121.065 7.25457 122.071 7.56252 122.781 8.15451C123.557 8.80107 123.933 9.74754 123.933 10.9295C123.933 12.1113 123.557 13.0578 122.781 13.7044C122.071 14.2964 121.065 14.6043 119.812 14.6548V15.4126H118.186V14.6559C116.928 14.6103 115.917 14.3049 115.202 13.713C114.422 13.0664 114.043 12.1169 114.043 10.9295C114.043 9.74199 114.422 8.79247 115.202 8.14591C115.917 7.55398 116.928 7.24863 118.186 7.20299V6.44629ZM119.509 6.74688H118.488L119.51 6.74685V7.49757C122.222 7.51903 123.632 8.69872 123.632 10.9295C123.632 12.0408 123.282 12.8911 122.595 13.4674C123.281 12.891 123.631 12.0405 123.631 10.9295C123.631 8.69874 122.221 7.51905 119.509 7.49759V6.74688ZM119.509 14.3614L119.51 14.3613V15.112L119.509 15.1121V14.3614ZM115.507 10.9295C115.507 12.5836 116.248 13.2656 118.186 13.3364C118.283 13.34 118.384 13.342 118.487 13.3425C116.324 13.3318 115.506 12.6669 115.506 10.9295C115.506 9.94943 115.766 9.31079 116.382 8.93824C115.767 9.31093 115.507 9.94972 115.507 10.9295ZM118.186 8.82327C117.297 8.85704 116.729 9.02289 116.377 9.30864C116.003 9.61138 115.809 10.1025 115.809 10.9295C115.809 11.7564 116.003 12.2475 116.377 12.5503C116.729 12.836 117.297 13.0019 118.186 13.0356V8.82327ZM119.51 13.3425C119.59 13.3421 119.669 13.3408 119.745 13.3385C119.669 13.3408 119.59 13.3421 119.509 13.3425V8.51643L119.51 8.51641V13.3425ZM121.605 9.31153C121.256 9.02552 120.695 8.85772 119.812 8.82342V13.0355C120.695 13.0012 121.256 12.8334 121.605 12.5474C121.976 12.2434 122.168 11.7516 122.168 10.9295C122.168 10.1073 121.976 9.6155 121.605 9.31153ZM124.725 8.54894V6.98263H132V8.54894H129.17V15.091H127.544V8.54894H124.725ZM127.846 14.7904L128.868 14.7904V8.24833H131.698V7.28318H131.698V8.2484H128.868V14.7904H127.846ZM108.85 7.06876C106.536 7.06876 104.976 8.656 104.976 11.0261C104.976 12.3119 105.431 13.3695 106.214 14.0703C105.43 13.3696 104.975 12.3121 104.975 11.0261C104.975 8.65597 106.536 7.06873 108.849 7.06873C108.909 7.06873 108.969 7.0698 109.027 7.07192C108.969 7.06982 108.909 7.06876 108.85 7.06876ZM111.561 10.5006C111.561 9.71568 111.255 9.07134 110.734 8.65551C111.256 9.07124 111.562 9.71546 111.562 10.5006V11.5731C111.562 12.978 110.582 13.9325 109.14 13.9325H108.559C108.521 13.9325 108.482 13.9318 108.445 13.9304C108.482 13.9318 108.52 13.9325 108.559 13.9325H109.14C110.582 13.9325 111.561 12.978 111.561 11.5731V10.5006ZM105.829 7.94861C106.572 7.19094 107.621 6.76819 108.849 6.76819C110.077 6.76819 111.127 7.19094 111.87 7.94861C112.612 8.70567 113.025 9.77426 113.025 11.0261C113.025 12.2829 112.612 13.3566 111.87 14.1177C111.128 14.8796 110.078 15.3055 108.849 15.3055C107.62 15.3055 106.571 14.8796 105.828 14.1177C105.087 13.3566 104.674 12.2829 104.674 11.0261C104.674 9.77426 105.087 8.70567 105.829 7.94861ZM107.022 9.00928C106.659 9.3614 106.439 9.87088 106.439 10.5006V11.5731C106.439 12.2028 106.659 12.7123 107.022 13.0644C107.385 13.4172 107.911 13.6319 108.559 13.6319H109.14C109.793 13.6319 110.319 13.4169 110.68 13.0647C111.041 12.7131 111.26 12.2037 111.26 11.5731V10.5006C111.26 9.86994 111.041 9.36058 110.68 9.00894C110.319 8.65677 109.793 8.44175 109.14 8.44175H108.559C107.911 8.44175 107.385 8.65648 107.022 9.00928ZM99.6695 7.06876C97.3557 7.06876 95.7955 8.656 95.7955 11.0261C95.7955 12.2384 96.1999 13.2478 96.9023 13.9466C96.1995 13.2479 95.7947 12.2386 95.7947 11.0261C95.7947 8.65597 97.355 7.06873 99.6688 7.06873C99.6939 7.06873 99.7189 7.06893 99.7438 7.06931C99.7191 7.06893 99.6942 7.06876 99.6695 7.06876ZM102.187 12.3989L102.187 12.3989C101.897 13.3534 101.058 13.9325 99.9599 13.9325H99.3788C99.3621 13.9325 99.3454 13.9324 99.3287 13.9321L99.3474 13.9324C99.3575 13.9325 99.3679 13.9325 99.3781 13.9325H99.9594C101.057 13.9325 101.896 13.3534 102.187 12.3989ZM101.961 9.35308C101.588 8.5992 100.969 8.19388 100.131 8.14599C100.969 8.19371 101.588 8.59898 101.961 9.353L101.961 9.35308ZM103.458 9.44562L101.787 9.68111L101.69 9.48605C101.513 9.12789 101.281 8.87131 101.001 8.70249C100.722 8.53333 100.377 8.44175 99.9594 8.44175H99.3781C98.731 8.44175 98.2044 8.65648 97.8413 9.00928C97.479 9.3614 97.2586 9.87088 97.2586 10.5006V11.5731C97.2586 12.2028 97.479 12.7123 97.8413 13.0644C98.2044 13.4172 98.731 13.6319 99.3781 13.6319H99.9594C100.941 13.6319 101.651 13.1239 101.898 12.3116L101.973 12.0652L103.653 12.3019L103.538 12.6441C102.977 14.321 101.531 15.3055 99.6688 15.3055C98.4401 15.3055 97.3901 14.8796 96.6478 14.1177C95.9061 13.3566 95.4932 12.2829 95.4932 11.0261C95.4932 9.77426 95.9064 8.70567 96.6485 7.94861C97.3911 7.19094 98.4405 6.76819 99.6688 6.76819C101.375 6.76819 102.662 7.5841 103.304 9.08505L103.458 9.44562ZM88.5883 14.7904H93.968L88.5875 14.7904V7.28318H88.5883V14.7904ZM94.2696 15.091H88.286V6.98263H94.1621V8.54894H89.9114V10.2H93.6241V11.7663H89.9114V13.4174H94.2696V15.091ZM79.4987 15.0049H79.714C79.7992 15.0049 79.8821 15.0025 79.9627 14.9979C79.9094 15.0009 79.8552 15.003 79.7997 15.0041C79.7711 15.0046 79.7423 15.0049 79.7133 15.0049H79.4982V13.9861H79.4987V15.0049ZM81.8662 8.24833L85.2016 8.2484V14.7904H86.2239L85.2023 14.7904V8.24833H81.8662ZM80.8434 13.0209C80.8434 13.5768 80.6574 13.8549 80.1761 13.9486C80.6578 13.855 80.8439 13.577 80.8439 13.0208V7.28318H80.8434V13.0209ZM79.1966 15.3055V13.6855H79.7133C80.1126 13.6855 80.3001 13.6199 80.3929 13.5407C80.4723 13.4728 80.5416 13.3416 80.5416 13.0209V6.98263H86.5254V15.091H84.9V8.54894H82.1673V13.289C82.1673 13.9175 81.9427 14.4393 81.4942 14.7961C81.0558 15.1446 80.4413 15.3055 79.7133 15.3055H79.1966ZM72.5012 14.7904H77.8812L72.5007 14.7904V7.28318H72.5012V14.7904ZM78.1828 15.091H72.1992V6.98263H78.0752V8.54894H73.8246V10.2H77.5371V11.7663H73.8246V13.4174H78.1828V15.091ZM70.8257 7.28318H70.8247V8.24833H67.9946V14.7904H66.973L67.9953 14.7904V8.2484H70.8257V7.28318ZM63.8522 8.54894V6.98263H71.1272V8.54894H68.2968V15.091H66.6714V8.54894H63.8522ZM63.2794 9.4456L61.6087 9.68109L61.512 9.48603C61.3347 9.12787 61.1022 8.87128 60.823 8.70246C60.5432 8.5333 60.1986 8.44172 59.7808 8.44172H59.1997C58.5526 8.44172 58.026 8.65646 57.663 9.00926C57.3004 9.36138 57.08 9.87086 57.08 10.5006V11.573C57.08 12.2028 57.3004 12.7123 57.663 13.0644C58.026 13.4172 58.5526 13.6319 59.1997 13.6319H59.7808C60.7627 13.6319 61.4726 13.1239 61.7198 12.3116L61.7949 12.0652L63.4744 12.3019L63.3598 12.644C62.7991 14.321 61.3527 15.3055 59.4904 15.3055C58.2614 15.3055 57.2117 14.8796 56.4694 14.1177C55.7278 13.3566 55.3148 12.2829 55.3148 11.0261C55.3148 9.77423 55.728 8.70565 56.4699 7.94859C57.2125 7.19092 58.2622 6.76817 59.4904 6.76817C61.1964 6.76817 62.483 7.58408 63.1253 9.08502L63.2794 9.4456ZM59.7815 13.9325C60.8792 13.9325 61.7184 13.3534 62.009 12.3989L62.0085 12.3988C61.7179 13.3533 60.8784 13.9325 59.7808 13.9325H59.1997C59.1663 13.9325 59.1329 13.9319 59.0999 13.9309C59.1331 13.9319 59.1665 13.9325 59.2005 13.9325H59.7815ZM55.6168 11.0261C55.6168 12.7899 56.4733 14.124 57.8577 14.6971C56.473 14.1242 55.6164 12.7901 55.6164 11.0261C55.6164 8.65595 57.1766 7.06871 59.4904 7.06871C59.5403 7.06871 59.5897 7.06943 59.6386 7.07091C59.5897 7.06946 59.5405 7.06873 59.4909 7.06873C57.1773 7.06873 55.6168 8.65597 55.6168 11.0261ZM61.7826 9.35305L61.7831 9.35298C61.4006 8.58042 60.76 8.17394 59.8898 8.14309C60.7598 8.17413 61.4001 8.58061 61.7826 9.35305ZM48.2943 14.7904H47.2725V7.28318H47.272V14.7904L48.2943 14.7904ZM48.2948 11.4658H52.4912V14.7904H53.5133L52.4917 14.7904V11.4657L48.2948 11.4658ZM52.4917 10.5005V7.28318H52.4912V10.5005H52.4917ZM46.9705 15.091H48.5959V11.7663H52.1894V15.091H53.8151V6.98263H52.1894V10.2H48.5959V6.98263H46.9705V15.091ZM38.8967 14.7904L38.8964 14.7904H39.9941L40.5429 13.1817H44.0713L40.5417 13.1817L39.9929 14.7904H38.8967ZM44.6214 14.7904H45.7178L43.1352 7.28318H43.1364L45.719 14.7904L44.6214 14.7904ZM42.3071 8.06797L40.8767 12.2164H40.8752L42.3064 8.06602L42.3071 8.06797ZM38.4743 15.091H40.2101L40.759 13.4823H43.8567L44.4056 15.091H46.1414L43.3517 6.98263H41.2637L38.4743 15.091ZM43.3166 11.916H41.2991L42.3078 8.99081L43.3166 11.916ZM32.8659 14.7904H33.8875V11.573H35.889C37.9766 11.573 38.676 11.026 38.676 9.41731C38.676 8.06075 38.172 7.46935 36.7425 7.32163C38.1725 7.46923 38.6768 8.06059 38.6768 9.41738C38.6768 11.0261 37.9773 11.573 35.8897 11.573H33.8882V14.7904L32.8659 14.7904ZM33.8875 8.19472V10.6614H33.8882V8.19477H35.5022C35.7396 8.19477 35.9527 8.20143 36.1438 8.21587C35.9525 8.20138 35.7391 8.19472 35.5015 8.19472H33.8875ZM32.5643 15.091H34.1897V11.8736H35.8897C36.9407 11.8736 37.7293 11.7403 38.2512 11.3357C38.7966 10.913 38.9783 10.2568 38.9783 9.41738C38.9783 8.58276 38.7962 7.93121 38.25 7.51273C37.7281 7.11308 36.9399 6.98263 35.8897 6.98263H32.5643V15.091ZM34.1897 10.3609V8.49531H35.5022C36.2998 8.49531 36.7479 8.57451 36.9954 8.7203C37.1073 8.78624 37.1766 8.8653 37.2221 8.96559C37.2703 9.07223 37.2991 9.21921 37.2991 9.4281C37.2991 9.63701 37.2703 9.78399 37.2221 9.8906C37.1766 9.99092 37.1073 10.07 36.9954 10.1359C36.7479 10.2817 36.2998 10.3609 35.5022 10.3609H34.1897ZM24.5222 7.28318V8.24833H27.3417V14.7904H28.3633L27.341 14.7904V8.2484H24.5215V7.28318H24.5222ZM24.22 6.98263V8.54894H27.0394V15.091H28.6649V8.54894H31.495V6.98263H24.22Z" fill="#7D8D9C"/>
</g>
</g>
<defs>
<clipPath id="clip0_405_319">
<rect width="132" height="21" fill="white" transform="translate(0 0.5)"/>
</clipPath>
</defs>
</svg>
