<svg width="100" height="20" viewBox="0 0 156 31" fill="none" xmlns="http://www.w3.org/2000/svg">
<path fill-rule="evenodd" clip-rule="evenodd" d="M17.7735 2.42812L13.4669 0.125L0.00152766 8.31454L0 8.31374V8.31545V13.1527L5.25712 15.9258V28.1894L8.94425 30.125L8.88817 17.8036L14.4259 20.707L14.468 15.9258L14.4671 15.9253L28 7.85487L23.7776 5.5949L13.9158 11.4823L7.81362 8.31548L17.7735 2.42812ZM19.4307 17.8175L15.8417 19.8542V28.0733L19.4307 29.9944V17.8175Z" fill="white"/>
<path d="M132.93 18.9049C132.93 12.1415 137.509 7.5625 144.356 7.5625C151.204 7.5625 155.825 12.1415 155.825 19.6611V19.8711H137.173C137.383 24.9542 139.609 27.0966 144.902 27.0966C148.557 27.0966 150.447 26.0464 151.204 23.3158L155.278 23.6939C154.018 27.9788 150.489 30.2473 145.112 30.2473C137.551 30.2473 132.93 25.7103 132.93 18.9049ZM137.257 16.5944H151.414C150.783 12.3935 148.557 10.7132 144.356 10.7132C140.029 10.7132 137.803 12.4775 137.257 16.5944Z" fill="url(#paint0_linear_4480_5157)"/>
<path d="M105.484 18.904C105.484 12.1406 110.105 7.5616 116.575 7.5616C119.893 7.5616 122.414 8.77985 124.178 10.7963V0H128.085V29.4062H124.598L124.178 27.0117C122.414 29.0281 119.893 30.2464 116.533 30.2464C110.063 30.2464 105.484 25.6674 105.484 18.904ZM109.685 18.904C109.685 24.6592 111.87 27.0957 116.743 27.0957C121.784 27.0957 123.968 24.5332 124.178 19.2401V18.5679C123.968 13.2748 121.784 10.7123 116.743 10.7123C111.87 10.7123 109.685 13.1488 109.685 18.904Z" fill="url(#paint1_linear_4480_5157)"/>
<path d="M96.2482 29.408V8.40356H100.155V29.408H96.2482ZM95.8281 5.25289V0.421875H100.659V5.25289H95.8281Z" fill="url(#paint2_linear_4480_5157)"/>
<path d="M72.707 23.6939L76.6139 23.0218C77.076 25.7943 78.4622 26.8866 81.6129 26.8866C85.0156 26.8866 87.0741 25.5843 87.0741 23.4839C87.0741 18.1487 73.4632 21.2994 73.4632 14.0319C73.4632 10.3771 76.9079 7.5625 81.4449 7.5625C86.0658 7.5625 90.0987 10.4611 90.5608 14.1159L86.654 14.536C86.1919 11.8474 84.8056 10.7132 81.907 10.7132C79.1344 10.7132 77.37 11.7634 77.37 13.4017C77.37 17.9387 90.9809 15.2081 90.9809 23.2318C90.9809 27.3907 87.3681 30.2473 82.117 30.2473C76.9919 30.2473 73.1271 27.5587 72.707 23.6939Z" fill="url(#paint3_linear_4480_5157)"/>
<path d="M47.707 8.40268H51.6139V10.4191C53.2942 8.57071 55.6467 7.5625 58.5453 7.5625C64.5946 7.5625 67.8713 12.0154 67.8713 20.1652V29.4071H63.9645V20.1652C63.9645 12.8556 62.7042 10.7132 58.2513 10.7132C53.7563 10.7132 51.8239 12.9396 51.6139 18.2748V29.4071H47.707V8.40268Z" fill="url(#paint4_linear_4480_5157)"/>
<path d="M37.4201 29.408V8.40356H41.3269V29.408H37.4201ZM37 5.25289V0.421875H41.831V5.25289H37Z" fill="url(#paint5_linear_4480_5157)"/>
<defs>
<linearGradient id="paint0_linear_4480_5157" x1="182.769" y1="-28.145" x2="34.0579" y2="29.4071" gradientUnits="userSpaceOnUse">
<stop stop-color="white"/>
<stop offset="1" stop-color="#7CC0FF"/>
</linearGradient>
<linearGradient id="paint1_linear_4480_5157" x1="182.769" y1="-28.1459" x2="34.0578" y2="29.4062" gradientUnits="userSpaceOnUse">
<stop stop-color="white"/>
<stop offset="1" stop-color="#7CC0FF"/>
</linearGradient>
<linearGradient id="paint2_linear_4480_5157" x1="182.77" y1="-28.1441" x2="34.0587" y2="29.408" gradientUnits="userSpaceOnUse">
<stop stop-color="white"/>
<stop offset="1" stop-color="#7CC0FF"/>
</linearGradient>
<linearGradient id="paint3_linear_4480_5157" x1="182.77" y1="-28.145" x2="34.0589" y2="29.4071" gradientUnits="userSpaceOnUse">
<stop stop-color="white"/>
<stop offset="1" stop-color="#7CC0FF"/>
</linearGradient>
<linearGradient id="paint4_linear_4480_5157" x1="182.77" y1="-28.145" x2="34.0591" y2="29.4071" gradientUnits="userSpaceOnUse">
<stop stop-color="white"/>
<stop offset="1" stop-color="#7CC0FF"/>
</linearGradient>
<linearGradient id="paint5_linear_4480_5157" x1="182.771" y1="-28.1441" x2="34.0594" y2="29.408" gradientUnits="userSpaceOnUse">
<stop stop-color="white"/>
<stop offset="1" stop-color="#7CC0FF"/>
</linearGradient>
</defs>
</svg>
